<?xml version="1.0" standalone="no"?>
<!DOCTYPE svg PUBLIC "-//W3C//DTD SVG 20010904//EN"
 "http://www.w3.org/TR/2001/REC-SVG-20010904/DTD/svg10.dtd">
<svg version="1.0" xmlns="http://www.w3.org/2000/svg"
 width="900.000000pt" height="1154.000000pt" viewBox="0 0 900.000000 1154.000000"
 preserveAspectRatio="xMidYMid meet">

<g transform="translate(0.000000,1154.000000) scale(0.100000,-0.100000)"
fill="#000000" stroke="none">
<path d="M4135 11530 c-121 -14 -344 -57 -496 -95 -782 -196 -1560 -658 -2094
-1245 -588 -645 -920 -1371 -1021 -2235 -24 -205 -24 -633 0 -835 59 -502 177
-919 373 -1317 289 -589 742 -1095 1333 -1490 367 -244 861 -479 1253 -594
l77 -23 0 -403 0 -403 -525 0 -525 0 0 -900 0 -900 535 0 535 0 0 -545 0 -545
930 0 930 0 2 568 3 567 515 5 515 5 0 892 0 893 -537 0 -538 0 0 384 0 383
183 68 c812 304 1391 660 1857 1141 612 633 946 1412 1030 2399 15 184 13 587
-5 703 -169 1125 -719 2080 -1562 2713 -587 440 -1301 714 -2068 794 -181 19
-589 27 -700 15z m685 -235 c654 -71 1262 -286 1775 -628 691 -461 1198 -1138
1470 -1962 59 -176 129 -465 161 -660 25 -151 26 -173 20 -390 -21 -826 -227
-1519 -630 -2115 -232 -343 -572 -686 -934 -940 -391 -275 -911 -514 -1382
-634 l-135 -34 -3 -626 -2 -626 515 0 515 0 0 -675 0 -675 -495 0 -495 0 0
-535 0 -535 -690 0 -690 0 2 515 3 515 -527 0 -528 0 0 675 0 675 515 0 515 0
0 630 c0 576 -1 630 -16 630 -32 0 -491 159 -645 223 -549 230 -996 522 -1364
891 -613 616 -954 1395 -1035 2366 -18 217 5 562 56 840 111 600 359 1141 748
1630 130 163 425 457 596 594 576 460 1279 766 1980 861 131 18 491 13 700
-10z"/>
<path d="M4310 11213 c0 -35 34 -110 63 -141 46 -49 116 -73 213 -73 122 0
210 68 238 184 6 26 5 27 -36 27 -24 0 -52 3 -63 6 -16 4 -24 -4 -43 -45 -19
-41 -29 -52 -66 -66 -80 -31 -166 16 -182 100 l-6 35 -59 0 c-58 0 -59 -1 -59
-27z"/>
<path d="M4235 10939 c-251 -26 -523 -85 -782 -170 -144 -47 -154 -52 -149
-72 4 -12 9 -34 12 -49 4 -16 10 -28 14 -28 4 0 101 25 215 56 114 30 209 54
211 51 2 -2 25 -79 50 -172 l45 -167 -25 -38 c-44 -66 -132 -78 -176 -23 -28
35 -43 95 -31 125 12 33 63 75 101 83 29 6 29 7 16 33 -37 69 -35 69 -113 28
-39 -20 -83 -51 -99 -67 -27 -28 -29 -36 -29 -107 0 -103 29 -163 100 -207 41
-26 58 -30 114 -30 68 1 132 25 161 60 12 15 16 7 36 -65 12 -45 25 -84 27
-87 5 -4 116 22 122 29 1 2 -19 84 -46 183 -48 178 -49 180 -32 218 20 46 66
87 98 87 36 0 83 -46 96 -92 14 -53 5 -100 -32 -167 -17 -29 -29 -55 -27 -56
5 -5 98 -45 104 -45 3 0 22 35 42 78 86 180 35 345 -118 382 -69 17 -149 -7
-187 -55 l-27 -34 -19 66 c-10 36 -14 69 -10 73 9 8 181 34 328 50 50 5 149
10 220 10 l130 0 -2 -47 c-2 -27 -4 -177 -6 -335 l-3 -288 68 0 68 0 0 243 c0
134 3 286 7 337 l6 93 90 -7 c143 -10 217 -25 217 -45 0 -9 -11 -63 -25 -121
-31 -131 -31 -162 -1 -226 44 -94 127 -140 238 -132 54 4 57 3 52 -16 -16 -66
-51 -221 -50 -223 3 -3 126 -32 126 -29 0 13 150 639 154 643 13 13 165 -48
346 -140 107 -55 198 -102 202 -106 10 -9 -65 -152 -92 -176 -20 -18 -22 -18
-54 -1 -43 23 -57 50 -65 123 -7 64 -2 61 -90 47 l-34 -5 7 -77 c12 -135 36
-283 68 -416 l30 -128 57 7 c31 4 57 8 59 10 2 2 -8 39 -21 82 -14 43 -30 108
-37 143 -6 36 -13 77 -16 92 l-6 28 43 -15 c107 -38 156 -11 226 129 25 50 47
93 49 95 2 2 23 -8 48 -23 l45 -26 25 49 26 49 -108 63 c-443 260 -888 413
-1352 464 -145 16 -498 18 -635 4z m1145 -244 c0 -5 -14 -66 -30 -135 -33
-140 -48 -163 -119 -175 -51 -9 -110 18 -129 58 -14 30 -14 36 29 223 l21 91
114 -26 c63 -14 114 -30 114 -36z"/>
<path d="M2410 10219 c-693 -558 -1108 -1283 -1256 -2199 -21 -131 -30 -535
-15 -696 66 -699 340 -1340 800 -1872 80 -92 82 -102 26 -151 -52 -46 -105
-56 -159 -33 -91 41 -143 154 -202 437 -24 116 -26 121 -69 165 l-46 45 6 -60
c26 -258 53 -383 109 -502 74 -155 209 -237 336 -203 33 9 60 27 102 70 l56
58 32 -33 c17 -18 39 -32 48 -31 23 1 82 46 82 62 0 7 5 14 10 16 6 2 -9 23
-34 47 l-44 43 238 222 238 221 -45 47 -46 47 -47 -42 c-26 -23 -134 -123
-240 -222 l-193 -179 -34 39 c-108 125 -208 255 -281 364 l-83 124 42 25 c34
20 43 22 50 11 4 -8 43 -70 86 -139 66 -106 83 -126 111 -134 27 -7 38 -6 60
10 32 24 70 95 79 147 4 30 9 37 22 32 78 -32 133 -23 180 30 42 48 54 102 48
211 -8 140 -51 221 -112 208 -16 -3 -33 -8 -37 -10 -3 -2 10 -43 29 -91 20
-48 38 -107 41 -130 4 -37 1 -46 -25 -72 -43 -42 -76 -48 -128 -23 -47 23
-101 91 -111 140 -8 40 18 65 63 60 l34 -4 -3 55 c-3 55 -4 56 -39 65 -50 12
-86 1 -126 -39 -30 -30 -33 -38 -33 -92 0 -68 29 -139 81 -198 35 -39 37 -52
18 -112 -18 -58 -41 -43 -115 75 -37 59 -78 124 -91 144 l-23 38 -80 -50 -79
-50 -35 63 c-42 76 -154 342 -196 469 -83 245 -151 611 -122 654 6 10 112 30
112 21 0 -41 34 -235 44 -256 19 -37 79 -89 112 -97 48 -12 135 4 183 33 37
23 53 43 81 98 33 66 35 76 36 178 l1 109 33 19 c18 11 33 19 34 17 1 -2 13
-27 26 -55 13 -29 26 -53 29 -53 3 1 23 16 45 35 l38 34 -20 28 c-10 15 -22
38 -26 49 -18 57 46 108 104 84 46 -19 65 -62 64 -145 -2 -87 -17 -125 -87
-207 l-55 -66 34 -33 34 -33 36 35 c19 18 56 75 81 126 39 78 47 103 51 167
11 170 -61 276 -187 276 -54 0 -95 -21 -151 -79 -25 -26 -66 -59 -92 -74 l-48
-28 -22 21 c-32 30 -99 31 -132 2 -68 -62 -21 -162 78 -162 30 0 35 -4 41 -29
8 -36 -9 -104 -37 -150 -43 -69 -136 -94 -182 -48 -20 20 -25 43 -41 180 -10
86 -21 161 -24 166 -5 8 -49 4 -172 -14 l-37 -5 -12 99 c-17 140 -1 412 30
494 17 44 26 57 38 53 10 -2 42 -7 72 -11 30 -4 72 -11 93 -16 36 -10 38 -12
35 -46 -3 -37 -27 -57 -100 -82 l-28 -10 22 -48 c13 -26 24 -50 26 -52 9 -15
440 195 512 249 l22 17 -21 39 c-37 71 -31 70 -122 11 -73 -47 -180 -107 -192
-107 -3 0 -7 17 -10 39 -7 55 -28 94 -58 108 -14 7 -75 20 -135 29 -60 9 -110
17 -111 18 -7 7 80 279 137 431 50 131 130 315 138 315 20 0 92 -34 92 -44 0
-6 -27 -77 -60 -158 -33 -80 -60 -162 -60 -180 0 -113 136 -186 286 -154 65
13 224 67 252 84 9 7 9 19 -4 58 -9 27 -18 50 -19 51 -1 2 -19 -6 -41 -16
-130 -63 -280 -83 -332 -44 -15 11 -28 27 -30 36 -3 16 92 264 107 280 5 4 99
-28 211 -73 111 -44 203 -80 204 -78 10 18 47 120 45 122 -2 1 -131 53 -285
115 -155 62 -287 117 -293 121 -15 9 10 62 102 217 39 67 64 100 71 94 72 -57
529 -381 532 -378 23 22 72 103 66 108 -4 4 -124 91 -267 194 -143 103 -261
189 -263 190 -2 2 12 25 29 51 93 140 293 373 389 454 l52 43 64 -65 65 -64
-143 -134 c-79 -73 -149 -143 -157 -155 -30 -48 1 -68 141 -92 73 -13 90 -13
114 -1 42 19 40 42 -6 92 -23 25 -40 49 -38 54 1 4 38 42 82 82 l78 75 137
-143 136 -142 49 43 48 43 -226 241 c-124 133 -226 245 -226 249 0 5 12 18 28
31 l27 22 -40 40 -40 40 -75 -60z"/>
<path d="M7174 9860 c-29 -16 -63 -43 -76 -60 l-24 -30 -39 40 c-21 22 -44 40
-50 40 -5 0 -28 -16 -50 -34 l-40 -34 25 -29 c68 -76 91 -45 -199 -279 -203
-163 -257 -212 -251 -224 5 -8 24 -32 42 -52 l33 -38 258 210 259 210 48 -50
c61 -63 110 -138 246 -376 86 -149 120 -219 153 -318 24 -70 42 -128 40 -130
-2 -2 -130 -46 -284 -99 -154 -53 -294 -101 -312 -107 l-31 -11 20 -60 c11
-32 24 -59 30 -59 5 0 147 47 315 105 168 58 307 104 308 103 11 -14 42 -98
36 -98 -5 0 -2 -27 6 -60 9 -34 14 -62 12 -65 -3 -2 -133 -36 -289 -75 -157
-39 -301 -75 -321 -81 l-36 -9 15 -65 c12 -50 19 -64 31 -60 37 10 621 155
629 155 19 0 52 -208 52 -326 0 -62 -4 -64 -132 -64 l-88 0 0 33 c0 18 -6 42
-14 52 -13 18 -16 18 -41 5 -15 -8 -59 -46 -97 -84 -104 -104 -103 -141 3
-141 l59 1 0 -97 c0 -54 3 -104 6 -112 4 -13 -21 -16 -165 -22 l-171 -8 0 -63
0 -64 88 0 c48 1 188 5 312 10 124 4 227 7 229 5 6 -6 -18 -187 -40 -305 -24
-130 -87 -390 -98 -408 -6 -9 -19 -11 -43 -7 -62 12 -62 12 -33 120 45 166 21
256 -82 306 -72 36 -178 34 -255 -4 -169 -83 -246 -290 -169 -453 16 -34 33
-64 38 -67 5 -3 29 11 55 30 l46 36 -24 34 c-71 106 -51 213 54 285 88 61 214
46 250 -28 15 -32 14 -39 -23 -176 -21 -79 -40 -148 -42 -153 -2 -6 40 -21 92
-35 78 -19 95 -26 90 -39 -4 -9 -26 -68 -50 -131 -68 -181 -88 -219 -227 -444
-72 -116 -132 -213 -134 -215 -2 -2 -54 26 -82 44 -1 1 29 52 68 113 95 150
92 194 -12 223 -50 13 -146 0 -216 -31 -46 -21 -73 -65 -87 -143 -9 -48 -27
-56 -73 -31 -40 21 -72 67 -72 103 0 61 70 134 160 166 57 20 210 45 278 45
l54 0 -7 53 c-4 28 -11 56 -15 60 -13 14 -188 -13 -286 -44 -135 -43 -207 -97
-256 -192 -22 -44 -35 -139 -24 -181 17 -67 139 -156 214 -156 46 0 75 33 100
116 25 82 41 99 102 113 97 23 98 10 6 -136 -42 -66 -76 -124 -76 -129 0 -5
34 -29 75 -54 41 -25 75 -47 75 -50 0 -4 -13 -24 -30 -46 l-29 -41 47 -33 47
-33 48 54 c73 80 194 244 264 358 64 102 181 330 224 434 13 32 30 62 39 66 8
5 96 32 195 61 99 28 182 53 184 55 2 2 -2 27 -9 55 -14 60 5 62 -203 -26 -82
-34 -147 -57 -144 -51 44 116 116 389 146 554 70 388 72 844 6 1213 -8 46 -11
87 -7 92 14 13 87 24 119 17 140 -29 153 -201 41 -538 -30 -92 -30 -95 -17
-165 l13 -70 33 69 c189 403 191 698 8 802 -45 26 -136 30 -195 10 l-35 -12
-42 145 c-53 183 -96 297 -184 481 -38 81 -69 151 -69 157 0 6 -6 15 -13 19
-7 4 -26 31 -42 58 -47 83 -158 245 -228 334 -73 92 -74 100 -17 141 99 71
195 33 254 -101 29 -66 60 -207 76 -344 11 -94 14 -103 52 -152 22 -29 43 -53
45 -53 3 0 2 60 -1 133 -16 308 -59 466 -159 574 -86 94 -198 118 -293 63z
m564 -2260 c-3 -61 -7 -112 -9 -114 -2 -2 -47 -6 -101 -8 l-96 -4 -6 36 c-3
19 -6 70 -6 112 l0 77 78 4 c42 1 92 4 111 5 l34 2 -5 -110z"/>
<path d="M4290 9803 c-742 -73 -1408 -525 -1745 -1183 -512 -1001 -194 -2205
746 -2829 561 -373 1271 -463 1919 -245 228 77 497 228 685 386 436 364 705
850 780 1408 19 135 19 425 1 560 -100 744 -574 1389 -1252 1706 -204 96 -467
169 -696 193 -90 10 -356 13 -438 4z m520 -208 c1225 -203 1975 -1434 1588
-2604 -198 -596 -679 -1075 -1276 -1271 -957 -313 -1997 133 -2432 1042 -271
568 -258 1229 35 1786 311 588 899 987 1565 1061 116 13 404 5 520 -14z"/>
<path d="M3813 9415 c-87 -19 -180 -66 -266 -134 -125 -99 -112 -12 -112 -749
l0 -641 -169 -3 -168 -3 7 58 c21 189 95 355 260 583 6 9 -9 74 -49 206 -32
106 -61 201 -65 210 -5 14 -24 2 -107 -66 -352 -291 -534 -717 -534 -1245 0
-453 102 -783 359 -1166 112 -166 130 -191 133 -184 2 2 48 96 104 209 l101
205 -54 110 c-58 121 -113 277 -137 397 -25 120 -40 109 147 106 l162 -3 0
-610 0 -610 33 -52 c95 -147 260 -240 475 -267 l47 -6 0 1835 0 1835 -52 -1
c-29 0 -81 -7 -115 -14z m27 -1815 l0 -1680 -52 20 c-75 28 -152 85 -193 140
l-35 48 0 656 0 656 -308 0 -308 0 13 -107 c25 -212 70 -370 155 -554 l40 -86
-37 -73 -37 -74 -44 70 c-105 165 -185 343 -227 509 -46 180 -52 237 -52 495
0 216 3 258 23 358 56 275 163 495 330 672 l67 73 23 -79 23 -79 -55 -83
c-130 -194 -191 -379 -211 -639 l-7 -93 311 0 311 0 0 684 0 684 40 35 c62 57
181 124 223 127 4 0 7 -756 7 -1680z"/>
<path d="M4495 9413 c-195 -41 -343 -180 -415 -389 -19 -56 -20 -94 -20 -1434
l0 -1377 24 -95 c56 -219 160 -347 326 -399 61 -19 80 -20 309 -13 l243 7 74
49 c79 53 120 98 158 174 40 81 46 138 46 429 l0 275 -255 0 -255 0 0 -229 c0
-226 0 -230 -22 -245 -30 -21 -71 -20 -91 2 -16 17 -17 129 -17 1403 0 1237 2
1387 16 1407 21 30 41 28 58 -6 11 -21 16 -72 18 -183 l3 -154 274 -3 273 -2
-4 212 -4 213 -40 75 c-75 144 -200 248 -339 285 -76 19 -265 19 -360 -2z
m340 -138 c101 -28 183 -101 239 -212 24 -48 26 -63 26 -173 l0 -120 -135 0
-135 0 0 100 c0 87 -3 107 -24 149 -79 154 -245 159 -320 10 l-26 -53 0 -1419
0 -1419 32 -41 c45 -56 124 -91 189 -84 57 7 90 23 147 72 l42 37 0 188 0 189
116 3 115 3 -3 -230 c-3 -215 -4 -233 -26 -280 -26 -57 -50 -85 -106 -126
l-39 -29 -223 0 c-265 0 -302 9 -376 88 -54 58 -82 114 -108 218 -20 78 -20
106 -18 1454 l3 1375 32 67 c17 37 53 90 80 119 81 87 153 118 298 128 99 8
155 4 220 -14z"/>
<path d="M5310 7576 c0 -944 2 -1716 5 -1716 3 0 52 30 108 66 329 214 590
478 764 771 101 172 211 458 238 621 l7 42 -211 0 -211 0 0 -22 c0 -45 -50
-210 -86 -282 -20 -41 -60 -105 -88 -142 l-51 -69 -5 1037 -5 1036 -40 58
c-109 158 -241 259 -402 308 l-23 7 0 -1715z m296 1343 l34 -47 0 -1183 1
-1184 140 145 c202 210 266 306 325 489 l26 81 63 0 64 0 -15 -52 c-62 -211
-190 -451 -341 -638 -80 -99 -268 -281 -370 -358 -45 -34 -83 -62 -85 -62 -2
0 -2 669 0 1487 l2 1487 61 -59 c33 -33 76 -81 95 -106z"/>
<path d="M6982 9211 c-116 -29 -202 -178 -202 -351 0 -77 11 -90 73 -90 l52 0
0 98 c1 114 18 160 74 198 38 26 106 33 141 14 32 -17 60 -74 60 -123 0 -25
-4 -49 -10 -52 -5 -3 -32 -9 -59 -12 l-50 -6 6 -51 c3 -28 7 -53 9 -55 2 -2
38 -3 79 -2 66 2 82 -1 120 -24 l45 -26 41 21 c38 20 40 22 27 43 -8 12 -35
36 -61 52 l-46 30 0 66 c-2 154 -85 256 -221 272 -25 3 -60 2 -78 -2z"/>
<path d="M1576 8369 c-17 -99 -25 -163 -21 -167 2 -2 26 9 52 25 47 29 48 31
56 92 5 34 7 64 5 66 -2 2 -22 7 -45 11 -41 6 -42 6 -47 -27z"/>
<path d="M1572 6893 c-24 -8 -41 -20 -39 -27 2 -6 32 -95 66 -199 69 -207 82
-225 130 -190 46 35 124 159 125 201 1 33 -2 37 -27 40 -16 2 -49 -4 -74 -12
-26 -9 -47 -15 -48 -13 -1 1 -18 49 -37 106 -19 58 -38 106 -44 107 -5 1 -28
-5 -52 -13z"/>
<path d="M4410 4883 c-158 -81 -170 -283 -24 -386 32 -23 56 -30 105 -34 56
-4 71 -1 119 24 81 41 114 94 118 186 3 65 0 77 -27 124 -39 66 -99 103 -178
110 -50 4 -66 0 -113 -24z"/>
</g>
</svg>
